<svg width="114" height="46" viewBox="0 0 114 46" fill="none" xmlns="http://www.w3.org/2000/svg">
<rect y="39.6573" width="98" height="5.97609" fill="#1F1F1F"/>
<rect x="106" y="37.6653" width="8" height="7.96813" rx="3.98406" fill="#1F1F1F"/>
<path d="M89.9608 29.6973V18.6614C89.9608 17.6521 89.6408 16.842 89.0008 16.2311C88.3875 15.5937 87.6008 15.275 86.6408 15.275C85.9742 15.275 85.3875 15.4211 84.8808 15.7132C84.3742 15.9788 83.9742 16.3772 83.6808 16.9084C83.3875 17.4131 83.2408 17.9974 83.2408 18.6614L80.8808 17.506C80.8808 15.9921 81.2142 14.6641 81.8808 13.522C82.5475 12.3799 83.4675 11.5034 84.6408 10.8925C85.8408 10.255 87.1875 9.93633 88.6808 9.93633C90.1208 9.93633 91.3875 10.2816 92.4809 10.9722C93.6008 11.6362 94.4809 12.526 95.1208 13.6415C95.7608 14.757 96.0808 15.9788 96.0808 17.3068V29.6973H89.9608ZM77.1208 29.6973V10.3347H83.2408V29.6973H77.1208Z" fill="#1F1F1F"/>
<path d="M63.4339 30.1355C61.4339 30.1355 59.6206 29.6973 57.9939 28.8208C56.3939 27.9177 55.1273 26.6959 54.1939 25.1554C53.2606 23.6149 52.7939 21.8885 52.7939 19.9762C52.7939 18.0638 53.2606 16.3507 54.1939 14.8367C55.1273 13.3228 56.3939 12.1275 57.9939 11.2511C59.5939 10.348 61.4073 9.89647 63.4339 9.89647C65.4606 9.89647 67.2739 10.3347 68.8739 11.2112C70.4739 12.0877 71.7406 13.2962 72.6739 14.8367C73.6073 16.3507 74.0739 18.0638 74.0739 19.9762C74.0739 21.8885 73.6073 23.6149 72.6739 25.1554C71.7406 26.6959 70.4739 27.9177 68.8739 28.8208C67.2739 29.6973 65.4606 30.1355 63.4339 30.1355ZM63.4339 24.5977C64.3139 24.5977 65.0873 24.4117 65.7539 24.0399C66.4206 23.6415 66.9273 23.097 67.2739 22.4064C67.6473 21.6893 67.8339 20.8792 67.8339 19.9762C67.8339 19.0731 67.6473 18.2896 67.2739 17.6256C66.9006 16.935 66.3806 16.4038 65.7139 16.0319C65.0739 15.6335 64.3139 15.4343 63.4339 15.4343C62.5806 15.4343 61.8206 15.6335 61.1539 16.0319C60.4873 16.4038 59.9673 16.935 59.5939 17.6256C59.2206 18.3161 59.0339 19.1129 59.0339 20.016C59.0339 20.8925 59.2206 21.6893 59.5939 22.4064C59.9673 23.097 60.4873 23.6415 61.1539 24.0399C61.8206 24.4117 62.5806 24.5977 63.4339 24.5977Z" fill="#1F1F1F"/>
<path d="M24.3889 29.6973L35.5889 1.56976H41.2689L52.3489 29.6973H45.7089L37.2289 6.35064H39.5089L30.9089 29.6973H24.3889ZM30.7489 24.5977V19.4981H46.1489V24.5977H30.7489Z" fill="#1F1F1F"/>
<path d="M10.44 30.0957C8.59996 30.0957 6.95996 29.6574 5.51996 28.7809C4.10663 27.9044 2.98663 26.7092 2.15996 25.1953C1.35996 23.6813 0.959961 21.9549 0.959961 20.016C0.959961 18.0771 1.35996 16.3506 2.15996 14.8367C2.98663 13.3227 4.10663 12.1275 5.51996 11.251C6.95996 10.3745 8.59996 9.93629 10.44 9.93629C11.7733 9.93629 12.9733 10.1886 14.04 10.6933C15.1333 11.1979 16.0266 11.9018 16.72 12.8048C17.44 13.6813 17.84 14.6906 17.92 15.8327V24C17.84 25.1421 17.4533 26.178 16.76 27.1076C16.0666 28.0107 15.1733 28.7411 14.08 29.2988C12.9866 29.83 11.7733 30.0957 10.44 30.0957ZM11.52 24.5976C12.4 24.5976 13.16 24.4117 13.8 24.0399C14.44 23.6415 14.9466 23.097 15.32 22.4064C15.6933 21.7158 15.88 20.919 15.88 20.016C15.88 19.1129 15.6933 18.3294 15.32 17.6654C14.9733 16.9748 14.4666 16.4303 13.8 16.0319C13.16 15.6335 12.4133 15.4343 11.56 15.4343C10.7066 15.4343 9.94663 15.6335 9.27996 16.0319C8.63996 16.4303 8.11996 16.9748 7.71996 17.6654C7.34663 18.3559 7.15996 19.1395 7.15996 20.016C7.15996 20.8925 7.34663 21.676 7.71996 22.3666C8.0933 23.0571 8.6133 23.6016 9.27996 24C9.94663 24.3984 10.6933 24.5976 11.52 24.5976ZM21.64 29.6972H15.64V24.4781L16.56 19.7769L15.52 15.0757V0.772949H21.64V29.6972Z" fill="#1F1F1F"/>
</svg>
