<svg width="29" height="15" viewBox="0 0 29 15" fill="none" xmlns="http://www.w3.org/2000/svg">
<path d="M20 0.290812C19.8137 0.478174 19.7092 0.731626 19.7092 0.995812C19.7092 1.26 19.8137 1.51345 20 1.70081L24.56 6.34081L1 6.34081C0.734784 6.34081 0.48043 6.44617 0.292893 6.6337C0.105357 6.82124 3.09283e-07 7.0756 3.20876e-07 7.34081C3.32469e-07 7.60603 0.105357 7.86038 0.292894 8.04792C0.48043 8.23545 0.734784 8.34081 1 8.34081L24.53 8.34081L20 12.8708C19.9063 12.9638 19.8319 13.0744 19.7811 13.1962C19.7303 13.3181 19.7042 13.4488 19.7042 13.5808C19.7042 13.7128 19.7303 13.8435 19.7811 13.9654C19.8319 14.0872 19.9063 14.1978 20 14.2908C20.1874 14.4771 20.4408 14.5816 20.705 14.5816C20.9692 14.5816 21.2226 14.4771 21.41 14.2908L27.78 7.92081C27.9479 7.75214 28.0422 7.52382 28.0422 7.28581C28.0422 7.0478 27.9479 6.81948 27.78 6.65081L21.41 0.290812C21.2226 0.104561 20.9692 1.72032e-05 20.705 1.72148e-05C20.4408 1.72263e-05 20.1874 0.104561 20 0.290812Z" fill="#2F2F2F"/>
</svg>
