<svg width="20" height="12" viewBox="0 0 20 12" fill="none" xmlns="http://www.w3.org/2000/svg">
<path d="M1.91578e-05 1.1173C-0.000825809 0.971104 0.027195 0.826179 0.0824757 0.690835C0.137756 0.555491 0.219214 0.43239 0.322168 0.328591C0.425438 0.224472 0.548298 0.141831 0.683666 0.0854344C0.819035 0.0290376 0.96423 1.43716e-06 1.11088 1.42609e-06C1.25752 1.41502e-06 1.40272 0.0290375 1.53809 0.0854343C1.67345 0.141831 1.79631 0.224472 1.89958 0.328591L9.99774 8.43785L18.0959 0.32859C18.3051 0.119411 18.5888 0.00189643 18.8846 0.0018964C19.0311 0.00189639 19.1761 0.0307464 19.3114 0.0868006C19.4468 0.142855 19.5697 0.225015 19.6733 0.32859C19.7769 0.432165 19.859 0.555125 19.9151 0.690452C19.9711 0.825779 20 0.970822 20 1.1173C20 1.41312 19.8825 1.69683 19.6733 1.90601L10.7864 10.7929C10.6832 10.897 10.5603 10.9796 10.4249 11.036C10.2896 11.0924 10.1444 11.1215 9.99774 11.1215C9.85109 11.1215 9.7059 11.0924 9.57053 11.036C9.43516 10.9796 9.3123 10.897 9.20903 10.7929L0.322168 1.90601C0.219214 1.80221 0.137756 1.67911 0.0824758 1.54377C0.0271951 1.40842 -0.000825787 1.2635 1.91578e-05 1.1173Z" fill="white"/>
</svg>
