<svg width="114" height="45" viewBox="0 0 114 45" fill="none" xmlns="http://www.w3.org/2000/svg">
<rect y="38.8848" width="98" height="5.9761" fill="white"/>
<rect x="106" y="36.8926" width="8" height="7.96813" rx="3.98406" fill="white"/>
<path d="M89.9611 28.924V17.8882C89.9611 16.8789 89.6411 16.0688 89.0011 15.4579C88.3878 14.8205 87.6011 14.5017 86.6411 14.5017C85.9744 14.5017 85.3878 14.6478 84.8811 14.94C84.3744 15.2056 83.9744 15.604 83.6811 16.1352C83.3878 16.6398 83.2411 17.2242 83.2411 17.8882L80.8811 16.7328C80.8811 15.2189 81.2144 13.8908 81.8811 12.7487C82.5478 11.6066 83.4678 10.7302 84.6411 10.1193C85.8411 9.48181 87.1878 9.16309 88.6811 9.16309C90.1211 9.16309 91.3878 9.50837 92.4811 10.1989C93.6011 10.863 94.4811 11.7527 95.1211 12.8683C95.7611 13.9838 96.0811 15.2056 96.0811 16.5336V28.924H89.9611ZM77.1211 28.924V9.56149H83.2411V28.924H77.1211Z" fill="white"/>
<path d="M63.4339 29.3621C61.4339 29.3621 59.6206 28.9238 57.9939 28.0473C56.3939 27.1443 55.1273 25.9225 54.1939 24.382C53.2606 22.8415 52.7939 21.1151 52.7939 19.2027C52.7939 17.2904 53.2606 15.5772 54.1939 14.0633C55.1273 12.5493 56.3939 11.3541 57.9939 10.4776C59.5939 9.57458 61.4073 9.12305 63.4339 9.12305C65.4606 9.12305 67.2739 9.56129 68.8739 10.4378C70.4739 11.3143 71.7406 12.5228 72.6739 14.0633C73.6073 15.5772 74.0739 17.2904 74.0739 19.2027C74.0739 21.1151 73.6073 22.8415 72.6739 24.382C71.7406 25.9225 70.4739 27.1443 68.8739 28.0473C67.2739 28.9238 65.4606 29.3621 63.4339 29.3621ZM63.4339 23.8242C64.3139 23.8242 65.0873 23.6383 65.7539 23.2665C66.4206 22.8681 66.9273 22.3236 67.2739 21.633C67.6473 20.9159 67.8339 20.1058 67.8339 19.2027C67.8339 18.2997 67.6473 17.5161 67.2739 16.8521C66.9006 16.1616 66.3806 15.6304 65.7139 15.2585C65.0739 14.8601 64.3139 14.6609 63.4339 14.6609C62.5806 14.6609 61.8206 14.8601 61.1539 15.2585C60.4873 15.6304 59.9673 16.1616 59.5939 16.8521C59.2206 17.5427 59.0339 18.3395 59.0339 19.2426C59.0339 20.1191 59.2206 20.9159 59.5939 21.633C59.9673 22.3236 60.4873 22.8681 61.1539 23.2665C61.8206 23.6383 62.5806 23.8242 63.4339 23.8242Z" fill="white"/>
<path d="M24.3892 28.9244L35.5892 0.796875H41.2692L52.3492 28.9244H45.7092L37.2292 5.57775H39.5092L30.9092 28.9244H24.3892ZM30.7492 23.8248V18.7252H46.1492V23.8248H30.7492Z" fill="white"/>
<path d="M10.44 29.3227C8.59996 29.3227 6.95996 28.8845 5.51996 28.008C4.10663 27.1315 2.98663 25.9363 2.15996 24.4223C1.35996 22.9084 0.959961 21.1819 0.959961 19.243C0.959961 17.3041 1.35996 15.5777 2.15996 14.0637C2.98663 12.5498 4.10663 11.3546 5.51996 10.4781C6.95996 9.60159 8.59996 9.16335 10.44 9.16335C11.7733 9.16335 12.9733 9.41567 14.04 9.92032C15.1333 10.425 16.0266 11.1288 16.72 12.0319C17.44 12.9084 17.84 13.9177 17.92 15.0598V23.2271C17.84 24.3692 17.4533 25.405 16.76 26.3347C16.0666 27.2377 15.1733 27.9681 14.08 28.5259C12.9866 29.0571 11.7733 29.3227 10.44 29.3227ZM11.52 23.8247C12.4 23.8247 13.16 23.6388 13.8 23.2669C14.44 22.8685 14.9466 22.324 15.32 21.6335C15.6933 20.9429 15.88 20.1461 15.88 19.243C15.88 18.34 15.6933 17.5564 15.32 16.8924C14.9733 16.2019 14.4666 15.6574 13.8 15.259C13.16 14.8606 12.4133 14.6614 11.56 14.6614C10.7066 14.6614 9.94663 14.8606 9.27996 15.259C8.63996 15.6574 8.11996 16.2019 7.71996 16.8924C7.34663 17.583 7.15996 18.3665 7.15996 19.243C7.15996 20.1195 7.34663 20.9031 7.71996 21.5936C8.0933 22.2842 8.6133 22.8287 9.27996 23.2271C9.94663 23.6255 10.6933 23.8247 11.52 23.8247ZM21.64 28.9243H15.64V23.7052L16.56 19.004L15.52 14.3028V0H21.64V28.9243Z" fill="white"/>
</svg>
