<svg width="252" height="41" viewBox="0 0 252 41" fill="none" xmlns="http://www.w3.org/2000/svg">
<rect width="252" height="35" rx="17.5" fill="#2F2F2F"/>
<path d="M206 41L200.804 35L211.196 35L206 41Z" fill="#2F2F2F"/>
<path d="M24.452 23.5435C23.668 23.5435 22.9913 23.4315 22.422 23.2075C21.862 22.9835 21.428 22.6615 21.12 22.2415C20.8213 21.8121 20.672 21.3081 20.672 20.7295C20.672 20.1695 20.8167 19.6935 21.106 19.3015C21.4047 18.9001 21.834 18.5921 22.394 18.3775C22.9633 18.1628 23.6493 18.0555 24.452 18.0555C25.2453 18.0555 25.9267 18.1628 26.496 18.3775C27.0653 18.5921 27.4993 18.9001 27.798 19.3015C28.106 19.6935 28.26 20.1695 28.26 20.7295C28.26 21.3081 28.106 21.8121 27.798 22.2415C27.49 22.6615 27.0513 22.9835 26.482 23.2075C25.9127 23.4315 25.236 23.5435 24.452 23.5435ZM24.452 22.6895C25.32 22.6895 25.9967 22.5121 26.482 22.1575C26.9767 21.8028 27.224 21.3221 27.224 20.7155C27.224 20.1088 26.9767 19.6328 26.482 19.2875C25.9967 18.9328 25.32 18.7555 24.452 18.7555C23.584 18.7555 22.9073 18.9328 22.422 19.2875C21.9367 19.6328 21.694 20.1088 21.694 20.7155C21.694 21.3221 21.9367 21.8028 22.422 22.1575C22.9073 22.5121 23.584 22.6895 24.452 22.6895ZM24.452 18.6295C23.724 18.6295 23.1033 18.5315 22.59 18.3355C22.086 18.1395 21.6987 17.8595 21.428 17.4955C21.1573 17.1221 21.022 16.6788 21.022 16.1655C21.022 15.6241 21.162 15.1621 21.442 14.7795C21.7313 14.3875 22.1327 14.0888 22.646 13.8835C23.1593 13.6781 23.7613 13.5755 24.452 13.5755C25.1427 13.5755 25.7447 13.6781 26.258 13.8835C26.7807 14.0888 27.1867 14.3875 27.476 14.7795C27.7653 15.1621 27.91 15.6241 27.91 16.1655C27.91 16.6788 27.7747 17.1221 27.504 17.4955C27.2333 17.8595 26.8367 18.1395 26.314 18.3355C25.8007 18.5315 25.18 18.6295 24.452 18.6295ZM24.452 17.9575C25.2173 17.9575 25.8147 17.7988 26.244 17.4815C26.6733 17.1641 26.888 16.7395 26.888 16.2075C26.888 15.6475 26.664 15.2135 26.216 14.9055C25.7773 14.5881 25.1893 14.4295 24.452 14.4295C23.7147 14.4295 23.1267 14.5881 22.688 14.9055C22.2493 15.2135 22.03 15.6428 22.03 16.1935C22.03 16.7348 22.24 17.1641 22.66 17.4815C23.0893 17.7988 23.6867 17.9575 24.452 17.9575ZM33.8497 17.5515V13.8135H30.3777V17.5515H33.8497ZM37.8537 14.9055H34.9697V16.4595H37.8537V14.9055ZM34.9697 17.3835V18.4615H29.2437V12.8895H34.9697V13.9815H37.8537V11.9515H39.0157V19.3715H37.8537V17.3835H34.9697ZM34.8577 23.5855C36.7617 23.5855 37.9097 23.0395 37.9097 22.1155C37.9097 21.1915 36.7617 20.6455 34.8577 20.6455C32.9817 20.6455 31.8337 21.1915 31.8337 22.1155C31.8337 23.0395 32.9817 23.5855 34.8577 23.5855ZM34.8577 19.7495C37.4477 19.7495 39.0577 20.6035 39.0577 22.1155C39.0577 23.6135 37.4477 24.4815 34.8577 24.4815C32.2817 24.4815 30.6857 23.6135 30.6857 22.1155C30.6857 20.6035 32.2817 19.7495 34.8577 19.7495ZM52.3407 11.9375H53.4887V24.5235H52.3407V11.9375ZM46.8667 12.9035C48.7287 12.9035 50.0587 14.6115 50.0587 17.2855C50.0587 19.9595 48.7287 21.6675 46.8667 21.6675C45.0047 21.6675 43.6747 19.9595 43.6747 17.2855C43.6747 14.6115 45.0047 12.9035 46.8667 12.9035ZM46.8667 13.9395C45.6347 13.9395 44.7667 15.2555 44.7667 17.2855C44.7667 19.3295 45.6347 20.6455 46.8667 20.6455C48.0847 20.6455 48.9527 19.3295 48.9527 17.2855C48.9527 15.2555 48.0847 13.9395 46.8667 13.9395ZM62.3436 17.8455L61.7416 18.7415C60.3836 18.2375 59.3056 17.2015 58.7456 15.9135C58.2276 17.3835 57.1076 18.5315 55.6376 19.0915L55.0356 18.1815C56.9396 17.4955 58.1576 15.7875 58.1576 13.8695V12.5815H59.3056V13.9675C59.3056 15.6615 60.5376 17.2295 62.3436 17.8455ZM60.8456 23.5855C62.6936 23.5855 63.8276 23.0675 63.8276 22.1995C63.8276 21.3175 62.6936 20.7995 60.8456 20.7995C58.9836 20.7995 57.8496 21.3175 57.8496 22.1995C57.8496 23.0675 58.9836 23.5855 60.8456 23.5855ZM60.8456 19.9035C63.3936 19.9035 64.9756 20.7295 64.9756 22.1995C64.9756 23.6555 63.3936 24.4815 60.8456 24.4815C58.2836 24.4815 56.7016 23.6555 56.7016 22.1995C56.7016 20.7295 58.2836 19.9035 60.8456 19.9035ZM64.8356 15.1855H66.6976V16.1375H64.8356V19.5535H63.6876V11.9515H64.8356V15.1855ZM75.0386 18.7975H76.7466V15.9135H75.0386C75.1086 16.3615 75.1506 16.8235 75.1506 17.3555C75.1506 17.8875 75.1086 18.3495 75.0386 18.7975ZM72.4626 20.6735C73.4706 20.6735 74.1006 19.3995 74.1006 17.3555C74.1006 15.3255 73.4706 14.0515 72.4626 14.0515C71.4686 14.0515 70.8246 15.3255 70.8246 17.3555C70.8246 19.3995 71.4686 20.6735 72.4626 20.6735ZM76.7466 14.9755V12.2175H77.8386V23.8795H76.7466V19.7495H74.8006C74.3526 21.0095 73.5546 21.7375 72.4626 21.7375C70.8386 21.7375 69.7886 20.0575 69.7886 17.3555C69.7886 14.6675 70.8386 12.9875 72.4626 12.9875C73.5546 12.9875 74.3666 13.7155 74.8006 14.9755H76.7466ZM79.2106 11.9375H80.3026V24.4955H79.2106V11.9375ZM82.8715 15.6615C82.8715 16.8375 83.7675 17.6635 85.0275 17.6635C86.2735 17.6635 87.1835 16.8375 87.1835 15.6615C87.1835 14.4715 86.2735 13.6595 85.0275 13.6595C83.7675 13.6595 82.8715 14.4715 82.8715 15.6615ZM88.3035 15.6615C88.3035 17.4115 86.9175 18.6295 85.0275 18.6295C83.1235 18.6295 81.7515 17.4115 81.7515 15.6615C81.7515 13.8975 83.1235 12.6935 85.0275 12.6935C86.9175 12.6935 88.3035 13.8975 88.3035 15.6615ZM83.0955 20.9255V19.9875H91.2575V24.4955H90.1095V20.9255H83.0955ZM93.0775 14.8075H91.2575V16.5435H93.0775V17.4815H91.2575V19.3995H90.1095V11.9515H91.2575V13.8555H93.0775V14.8075ZM97.8444 13.0295V15.2835C97.8444 17.5795 99.3424 19.8895 101.204 20.7295L100.518 21.6535C99.0904 20.9535 97.8864 19.4695 97.2844 17.6775C96.7104 19.5675 95.5064 21.1355 94.0364 21.8915L93.3364 20.9535C95.1844 20.0715 96.7104 17.6635 96.7104 15.2835V13.0295H97.8444ZM102.52 11.9375H103.668V24.5235H102.52V11.9375ZM115.201 17.4395L115.327 18.3635C113.605 18.7135 112.121 18.7975 109.489 18.7975H108.509V13.0295H114.067V13.9535H109.657V17.8595C112.135 17.8595 113.563 17.7615 115.201 17.4395ZM111.015 20.1135V23.2775H118.239V24.2155H109.867V20.1135H111.015ZM117.679 15.6615H119.541V16.6135H117.679V21.0235H116.531V11.9375H117.679V15.6615ZM123.468 15.1995V15.8015C123.468 17.8035 124.476 19.8755 126.17 20.7855L125.512 21.6535C124.294 20.9675 123.398 19.6935 122.936 18.1815C122.502 19.7775 121.62 21.1775 120.388 21.9195L119.716 21.0655C121.41 20.0575 122.376 17.8595 122.376 15.8015V15.1995H120.052V14.2475H122.376V12.3855H123.482V14.2475H125.792V15.1995H123.468ZM126.856 16.8935V12.2315H127.948V23.8375H126.856V17.8455H124.938V16.8935H126.856ZM129.376 11.9375H130.482V24.4815H129.376V11.9375ZM139.141 13.0855V13.9675H131.735V13.0855H134.857V11.8115H136.005V13.0855H139.141ZM133.527 16.5855C133.527 17.3275 134.269 17.7895 135.431 17.7895C136.593 17.7895 137.349 17.3275 137.349 16.5855C137.349 15.8295 136.593 15.3815 135.431 15.3815C134.269 15.3815 133.527 15.8295 133.527 16.5855ZM138.441 16.5855C138.441 17.8595 137.251 18.6435 135.431 18.6435C133.625 18.6435 132.435 17.8595 132.435 16.5855C132.435 15.3115 133.625 14.5275 135.431 14.5275C137.251 14.5275 138.441 15.3115 138.441 16.5855ZM134.619 22.2695V23.4735H141.899V24.3555H133.499V21.4295H140.303V20.3375H133.457V19.4835H141.437V22.2695H134.619ZM141.437 14.9195H143.299V15.8715H141.437V18.8395H140.289V11.8955H141.437V14.9195ZM153.876 11.9515V21.1215H152.728V11.9515H153.876ZM144.986 15.8995C144.986 17.1455 145.91 18.0135 147.128 18.0135C148.374 18.0135 149.298 17.1455 149.298 15.8995C149.298 14.6815 148.374 13.8135 147.128 13.8135C145.91 13.8135 144.986 14.6815 144.986 15.8995ZM150.418 15.8995C150.418 17.7195 149.004 19.0075 147.128 19.0075C145.266 19.0075 143.866 17.7195 143.866 15.8995C143.866 14.0935 145.266 12.8195 147.128 12.8195C149.004 12.8195 150.418 14.0935 150.418 15.8995ZM146.946 23.2775H154.254V24.2155H145.798V20.1835H146.946V23.2775ZM164.579 11.9375H165.727V24.5235H164.579V11.9375ZM159.105 12.9035C160.967 12.9035 162.297 14.6115 162.297 17.2855C162.297 19.9595 160.967 21.6675 159.105 21.6675C157.243 21.6675 155.913 19.9595 155.913 17.2855C155.913 14.6115 157.243 12.9035 159.105 12.9035ZM159.105 13.9395C157.873 13.9395 157.005 15.2555 157.005 17.2855C157.005 19.3295 157.873 20.6455 159.105 20.6455C160.323 20.6455 161.191 19.3295 161.191 17.2855C161.191 15.2555 160.323 13.9395 159.105 13.9395ZM177.4 18.0695L176.826 18.9655C175.426 18.4615 174.348 17.4255 173.788 16.1235C173.256 17.5655 172.108 18.7135 170.638 19.2595L170.036 18.3495C171.898 17.6915 173.2 16.0115 173.2 14.2335V13.7295H170.4V12.7915H177.106V13.7295H174.348V14.2335C174.348 15.8435 175.58 17.4255 177.4 18.0695ZM171.94 21.0655V20.1415H180.34V24.5095H179.178V21.0655H171.94ZM179.178 11.9375H180.34V19.4555H179.178V16.1515H176.728V15.2135H179.178V11.9375ZM187.543 23.5995C189.503 23.5995 190.679 23.1095 190.679 22.2555C190.679 21.4015 189.503 20.9115 187.543 20.9115C185.569 20.9115 184.407 21.4015 184.407 22.2555C184.407 23.1095 185.569 23.5995 187.543 23.5995ZM187.543 20.0155C190.245 20.0155 191.841 20.8135 191.841 22.2555C191.841 23.6975 190.245 24.4815 187.543 24.4815C184.855 24.4815 183.245 23.6975 183.245 22.2555C183.245 20.8135 184.855 20.0155 187.543 20.0155ZM185.807 16.6835V18.1535H189.293V16.6835C188.775 16.7675 188.187 16.8235 187.543 16.8235C186.913 16.8235 186.325 16.7675 185.807 16.6835ZM184.309 14.4995C184.309 15.3955 185.541 15.9415 187.543 15.9415C189.545 15.9415 190.777 15.3955 190.777 14.4995C190.777 13.5895 189.545 13.0575 187.543 13.0575C185.541 13.0575 184.309 13.5895 184.309 14.4995ZM190.427 18.1535H193.227V19.0775H181.859V18.1535H184.673V16.3895C183.679 15.9835 183.133 15.3535 183.133 14.4995C183.133 13.0295 184.827 12.1615 187.543 12.1615C190.273 12.1615 191.953 13.0295 191.953 14.4995C191.953 15.3395 191.393 15.9835 190.427 16.3755V18.1535ZM201.886 17.5235L201.956 18.3495C199.226 18.8115 196.216 18.8535 193.962 18.8675L193.794 17.9435C194.844 17.9435 196.076 17.9435 197.336 17.8875V16.5435H194.928V12.5675H200.836V13.5055H196.062V15.6055H200.962V16.5435H198.484V17.8455C199.646 17.7755 200.794 17.6915 201.886 17.5235ZM202.922 23.4035V21.9475H196.972V23.4035H202.922ZM202.922 21.0515V19.7355H204.056V24.3275H195.824V19.7355H196.972V21.0515H202.922ZM202.908 11.9515H204.056V19.1755H202.908V11.9515ZM207.563 13.1555V20.2675C209.453 20.2675 211.399 20.0995 213.485 19.6795L213.611 20.6595C211.427 21.1075 209.453 21.2475 207.451 21.2475H206.415V13.1555H207.563ZM214.773 11.9375H215.921V24.4815H214.773V11.9375ZM219.19 14.0935V20.4075C221.416 20.4075 223.026 20.3095 224.846 19.9875L224.972 20.9395C223.054 21.3035 221.402 21.3875 219.036 21.3875H218.042V13.1415H223.88V14.0935H219.19ZM229.242 16.8935V17.8455H227.17V24.5235H226.022V11.9375H227.17V16.8935H229.242ZM230.13 23.5295C229.925 23.5295 229.748 23.4548 229.598 23.3055C229.458 23.1561 229.388 22.9741 229.388 22.7595C229.388 22.5355 229.458 22.3535 229.598 22.2135C229.748 22.0735 229.925 22.0035 230.13 22.0035C230.336 22.0035 230.508 22.0735 230.648 22.2135C230.798 22.3535 230.872 22.5355 230.872 22.7595C230.872 22.9741 230.798 23.1561 230.648 23.3055C230.508 23.4548 230.336 23.5295 230.13 23.5295Z" fill="white"/>
</svg>
