<svg xmlns="http://www.w3.org/2000/svg" viewBox="0 0 568.38 196.47"><g id="Layer_2" data-name="Layer 2"><g id="Layer_1-2" data-name="Layer 1"><path d="M86,95.3c41.37-5.9,82.78-11.81,123.63-20.73,10.05-2.2,20.09-4.54,30-7.19,8.58-2.29,17.12-5,25-9C277,52,288.18,42.09,292,28.37c2-7.22,1.8-15.61-2.66-21.92-4.78-6.77-13-7.53-20-3.87A47,47,0,0,0,256,13.48C250,20.35,244.29,27.61,238.61,34.8c-22.71,28.73-44.28,58.65-70.83,84.05C137.29,148,99.86,167.69,62.28,186.19c-15.89,7.82-35,14.88-52.12,6.17a30.88,30.88,0,0,1-4.57-2.85c-.94-.72-4.41-3.06-4.51-4.3s5.13-4.4,5.85-4.8a39.73,39.73,0,0,1,6.47-2.68c9.4-3.22,19-5.89,28.62-8.42,39-10.29,79.1-16.22,119.32-19.16,40.41-3,81-2.91,121.47-1.26,42.39,1.73,84.68,5.19,126.94,8.7s84.44,7,126.76,9q15.72.72,31.46,1.12c.29,0,.59-.51.87-.5-42.73-1.06-85.36-4.16-128-7.62S355.7,152.31,313,149.85c-41-2.36-82-3.44-123-1.77-40.51,1.65-81,6-120.68,14.44q-14.83,3.16-29.51,7.11c-9.36,2.53-18.95,5-28,8.5a39.66,39.66,0,0,0-6.11,3c-.58.35-1.16.71-1.71,1.1a19.91,19.91,0,0,0-2.3,1.91C.52,185.23,0,185.47,1,186.66c5.43,5.93,13.26,9.05,21.14,9.94,18.73,2.13,36.18-8.31,52.23-16.47,15.06-7.65,30.05-15.47,44.52-24.19a281.84,281.84,0,0,0,44.79-33c13.56-12.37,25.84-26.06,37.52-40.2s22.94-28.95,34.33-43.49C241.26,32,247,24.79,252.91,17.69c5.77-6.93,12.78-15.8,22.4-16.85,8.26-.91,14.25,5.42,16.21,12.91,2,7.73.11,16.07-3.61,23-9.51,17.73-29,25.22-47.38,30.14-40.35,10.78-81.76,17.43-123,23.51q-15.3,2.25-30.62,4.41c-.31,0-.56.46-.87.5Z" transform="translate(-0.46 -0.41)"/></g></g></svg>